<svg width="12" height="12" viewBox="0 0 12 12" fill="none" xmlns="http://www.w3.org/2000/svg">
<path d="M10.4697 0.46967C10.7626 0.176777 11.2374 0.176777 11.5303 0.46967C11.8232 0.762563 11.8232 1.23744 11.5303 1.53033L10.4697 0.46967ZM6 6L5.46967 6.53033C5.17678 6.23744 5.17678 5.76256 5.46967 5.46967L6 6ZM11.5303 10.4697C11.8232 10.7626 11.8232 11.2374 11.5303 11.5303C11.2374 11.8232 10.7626 11.8232 10.4697 11.5303L11.5303 10.4697ZM11.5303 1.53033L6.53033 6.53033L5.46967 5.46967L10.4697 0.46967L11.5303 1.53033ZM6.53033 5.46967L11.5303 10.4697L10.4697 11.5303L5.46967 6.53033L6.53033 5.46967Z" fill="#E0E0E0"/>
<path d="M5.46967 0.46967C5.76256 0.176777 6.23744 0.176777 6.53033 0.46967C6.82322 0.762563 6.82322 1.23744 6.53033 1.53033L5.46967 0.46967ZM1 6L0.46967 6.53033C0.176777 6.23744 0.176777 5.76256 0.46967 5.46967L1 6ZM6.53033 10.4697C6.82322 10.7626 6.82322 11.2374 6.53033 11.5303C6.23744 11.8232 5.76256 11.8232 5.46967 11.5303L6.53033 10.4697ZM6.53033 1.53033L1.53033 6.53033L0.46967 5.46967L5.46967 0.46967L6.53033 1.53033ZM1.53033 5.46967L6.53033 10.4697L5.46967 11.5303L0.46967 6.53033L1.53033 5.46967Z" fill="#E0E0E0"/>
</svg>
