<svg width="12" height="12" viewBox="0 0 12 12" fill="none" xmlns="http://www.w3.org/2000/svg">
<path d="M1.53033 0.46967C1.23744 0.176777 0.762563 0.176777 0.46967 0.46967C0.176777 0.762563 0.176777 1.23744 0.46967 1.53033L1.53033 0.46967ZM6 6L6.53033 6.53033C6.82322 6.23744 6.82322 5.76256 6.53033 5.46967L6 6ZM0.46967 10.4697C0.176777 10.7626 0.176777 11.2374 0.46967 11.5303C0.762563 11.8232 1.23744 11.8232 1.53033 11.5303L0.46967 10.4697ZM0.46967 1.53033L5.46967 6.53033L6.53033 5.46967L1.53033 0.46967L0.46967 1.53033ZM5.46967 5.46967L0.46967 10.4697L1.53033 11.5303L6.53033 6.53033L5.46967 5.46967Z" fill="#E0E0E0"/>
<path d="M6.53033 0.46967C6.23744 0.176777 5.76256 0.176777 5.46967 0.46967C5.17678 0.762563 5.17678 1.23744 5.46967 1.53033L6.53033 0.46967ZM11 6L11.5303 6.53033C11.8232 6.23744 11.8232 5.76256 11.5303 5.46967L11 6ZM5.46967 10.4697C5.17678 10.7626 5.17678 11.2374 5.46967 11.5303C5.76256 11.8232 6.23744 11.8232 6.53033 11.5303L5.46967 10.4697ZM5.46967 1.53033L10.4697 6.53033L11.5303 5.46967L6.53033 0.46967L5.46967 1.53033ZM10.4697 5.46967L5.46967 10.4697L6.53033 11.5303L11.5303 6.53033L10.4697 5.46967Z" fill="#E0E0E0"/>
</svg>
