<svg width="145" height="26" viewBox="0 0 145 26" fill="none" xmlns="http://www.w3.org/2000/svg">
<path d="M19.549 20.4722H7.14685V7.89057C7.14685 7.53658 7.42853 7.25082 7.77747 7.25082H20.1796V19.8325C20.1796 20.1865 19.898 20.4722 19.549 20.4722Z" fill="white"/>
<path d="M9.96325 10.6632C10.144 10.3476 10.4804 10.1301 10.8671 10.1301C11.4473 10.1301 11.9182 10.6078 11.9182 11.1963C11.9182 11.7849 11.4473 12.2626 10.8671 12.2626C10.4804 12.2626 10.144 12.0451 9.96325 11.7295H7.14648V13.3288H11.8215L14.9704 10.6632H20.1793V7.25125H7.7771C7.42816 7.25125 7.14648 7.537 7.14648 7.891V10.6632H9.96325Z" fill="#196FF0"/>
<path d="M17.3625 17.0607C17.1817 17.3763 16.8454 17.5938 16.4586 17.5938C15.8785 17.5938 15.4076 17.1161 15.4076 16.5276C15.4076 15.939 15.8785 15.4613 16.4586 15.4613C16.8454 15.4613 17.1817 15.6788 17.3625 15.9944H20.1793V14.3951H16.0508L12.9019 17.0607H7.14648V20.4727H19.5487C19.8976 20.4727 20.1793 20.1869 20.1793 19.8329V17.0607H17.3625Z" fill="#196FF0"/>
<path d="M15.6724 13.3247L20.1793 13.3289V11.7296H15.3529L12.204 14.3994L7.14648 14.3952V15.9945H12.5194L15.6724 13.3247Z" fill="#196FF0"/>
<path d="M24.5942 7.25043H20.1799V10.6624H21.2309C21.5799 10.6624 21.8615 10.9481 21.8615 11.3021V21.5381C21.8615 21.892 21.5799 22.1778 21.2309 22.1778H11.141C10.7921 22.1778 10.5104 21.892 10.5104 21.5381V20.4718H7.14709V24.95C7.14709 25.304 7.42877 25.5898 7.77771 25.5898H24.5942C24.9432 25.5898 25.2248 25.304 25.2248 24.95V7.89017C25.2248 7.53618 24.9432 7.25043 24.5942 7.25043Z" fill="#4BD7D7"/>
<path d="M3.99392 17.0598C3.64498 17.0598 3.3633 16.7741 3.3633 16.4201V4.05171C3.3633 3.69772 3.64498 3.41197 3.99392 3.41197H16.1859C16.5348 3.41197 16.8165 3.69772 16.8165 4.05171V7.25043H20.1798V0.639744C20.1798 0.285752 19.8981 0 19.5492 0H0.630619C0.281676 0 0 0.285752 0 0.639744V19.8321C0 20.1861 0.281676 20.4718 0.630619 20.4718H7.14701V17.0598H3.99392Z" fill="#20B6F9"/>
<path d="M31.5595 16.94V4.40097H33.712V14.7563H38.8579V16.94H31.5553H31.5595Z" fill="white"/>
<path d="M43.961 17.1744C43.1496 17.1744 42.4096 16.9612 41.7412 16.539C41.0727 16.1167 40.5388 15.5452 40.1436 14.8287C39.7442 14.1122 39.5466 13.3189 39.5466 12.4531C39.5466 11.8006 39.6601 11.1907 39.8914 10.6235C40.1226 10.0562 40.4379 9.55296 40.8415 9.11793C41.2451 8.68291 41.716 8.34597 42.2499 8.10287C42.7838 7.85977 43.3556 7.73608 43.961 7.73608C44.6504 7.73608 45.2811 7.88536 45.8528 8.17964C46.4246 8.47392 46.9123 8.87909 47.3159 9.39515C47.7152 9.90695 48.0053 10.4955 48.1903 11.1523C48.3753 11.8091 48.4131 12.4958 48.3122 13.2123H41.8589C41.943 13.545 42.0775 13.8478 42.2667 14.1122C42.4559 14.3766 42.6913 14.5899 42.9814 14.7477C43.2715 14.9055 43.5952 14.9865 43.961 14.995C44.3393 14.9993 44.6799 14.9098 44.991 14.7221C45.2979 14.5344 45.5585 14.2785 45.7645 13.9587L47.9633 14.479C47.6059 15.2723 47.0678 15.9205 46.3573 16.4281C45.6468 16.9313 44.848 17.183 43.9652 17.183L43.961 17.1744ZM41.7874 11.566H46.1303C46.0672 11.2078 45.9285 10.8836 45.7183 10.5936C45.5081 10.3036 45.2516 10.0733 44.9447 9.89842C44.6378 9.72356 44.3099 9.63826 43.9568 9.63826C43.6036 9.63826 43.2757 9.72356 42.9772 9.89416C42.6787 10.0648 42.4223 10.2951 42.212 10.5851C42.0018 10.8751 41.8589 11.2035 41.7832 11.566H41.7874Z" fill="white"/>
<path d="M56.4391 7.98345H58.5916V16.9399H56.4391L56.3424 15.831C56.1027 16.2319 55.7832 16.556 55.3838 16.8034C54.9844 17.0508 54.5178 17.1744 53.9754 17.1744C53.3238 17.1744 52.71 17.0508 52.1382 16.7991C51.5665 16.5475 51.0662 16.202 50.6332 15.7585C50.2001 15.3149 49.8638 14.8074 49.6158 14.2274C49.3719 13.6473 49.25 13.0289 49.25 12.3636C49.25 11.6982 49.3677 11.1267 49.5989 10.5638C49.8302 10.0008 50.1581 9.51031 50.5743 9.08808C50.9905 8.66585 51.474 8.33318 52.0205 8.09434C52.5671 7.8555 53.1556 7.73608 53.7863 7.73608C54.3706 7.73608 54.8919 7.8683 55.3544 8.12846C55.8168 8.39289 56.2078 8.72556 56.5315 9.13073L56.4349 7.98345H56.4391ZM53.925 15.0676C54.3832 15.0676 54.791 14.9524 55.1442 14.7178C55.4973 14.4833 55.7748 14.1719 55.9724 13.771C56.1742 13.3744 56.2709 12.9351 56.2709 12.4574C56.2709 11.9797 56.17 11.5319 55.9724 11.1353C55.7706 10.7386 55.4931 10.423 55.14 10.1884C54.7868 9.95386 54.379 9.83871 53.925 9.83871C53.4709 9.83871 53.0589 9.95813 52.6848 10.1927C52.3106 10.4273 52.0121 10.7429 51.7935 11.1395C51.5749 11.5319 51.4614 11.9712 51.4614 12.4574C51.4614 12.9436 51.5749 13.3786 51.7977 13.7753C52.0205 14.1676 52.319 14.4833 52.6932 14.7178C53.0673 14.9524 53.4794 15.0676 53.925 15.0676Z" fill="white"/>
<path d="M60.3673 16.9399L60.3589 7.98347H62.5114L62.5198 8.78102C62.8183 8.45689 63.1799 8.20525 63.5961 8.01333C64.0123 7.82567 64.4621 7.73184 64.9456 7.73184C65.2693 7.73184 65.593 7.77876 65.9167 7.87685L65.0675 10.0818C64.8447 9.99227 64.6219 9.94962 64.3948 9.94962C64.0459 9.94962 63.7306 10.0349 63.4447 10.2055C63.1588 10.3761 62.9318 10.6064 62.7636 10.8964C62.5955 11.1865 62.5114 11.5063 62.5114 11.8603V16.9484H60.3589L60.3673 16.9399Z" fill="white"/>
<path d="M75.0389 11.2803V16.9399H72.8864V11.8518C72.8864 11.4978 72.8023 11.1779 72.63 10.8879C72.4576 10.5979 72.2306 10.3676 71.9447 10.197C71.6588 10.0264 71.3435 9.94109 70.9946 9.94109C70.6456 9.94109 70.3303 10.0264 70.0444 10.197C69.7586 10.3676 69.5315 10.5979 69.3634 10.8879C69.1952 11.1779 69.1111 11.4978 69.1111 11.8518V16.9399H66.9586L66.9502 7.98347H69.1027L69.1111 8.78102C69.4096 8.45689 69.7712 8.20525 70.1874 8.01333C70.6036 7.82567 71.0534 7.73184 71.5369 7.73184C72.1801 7.73184 72.7645 7.88965 73.2942 8.20952C73.8239 8.52939 74.2444 8.95589 74.5597 9.48901C74.875 10.0221 75.0305 10.6192 75.0305 11.276L75.0389 11.2803Z" fill="white"/>
<path d="M77.9013 6.82769C77.5818 6.82769 77.3169 6.72107 77.0983 6.50782C76.8797 6.29457 76.7704 6.03014 76.7704 5.70601C76.7704 5.38187 76.8797 5.12171 77.0983 4.90846C77.3169 4.69521 77.5818 4.58432 77.8929 4.58432C78.204 4.58432 78.4689 4.69094 78.6833 4.90846C78.8977 5.12597 79.007 5.3904 79.007 5.70601C79.007 6.02161 78.9019 6.29457 78.6875 6.50782C78.4773 6.72107 78.2124 6.82769 77.9013 6.82769ZM76.8082 7.98349H78.9607V16.9399H76.8082V7.98349V7.98349Z" fill="white"/>
<path d="M89.0965 11.2803V16.9399H86.944V11.8518C86.944 11.4978 86.86 11.1779 86.6876 10.8879C86.5152 10.5979 86.2882 10.3676 86.0023 10.197C85.7164 10.0264 85.4011 9.94109 85.0522 9.94109C84.7032 9.94109 84.3879 10.0264 84.102 10.197C83.8162 10.3676 83.5891 10.5979 83.421 10.8879C83.2528 11.1779 83.1687 11.4978 83.1687 11.8518V16.9399H81.0162L81.0078 7.98347H83.1603L83.1687 8.78102C83.4672 8.45689 83.8288 8.20525 84.245 8.01333C84.6612 7.82567 85.1152 7.73184 85.5945 7.73184C86.2377 7.73184 86.8221 7.88965 87.3518 8.20952C87.8816 8.52939 88.302 8.95589 88.6173 9.48901C88.9326 10.0221 89.0881 10.6192 89.0881 11.276L89.0965 11.2803Z" fill="white"/>
<path d="M97.2358 7.98349H99.3883V17.1105C99.3883 17.7545 99.2579 18.3431 99.0015 18.8719C98.745 19.4008 98.3877 19.8529 97.942 20.2325C97.4964 20.612 96.9835 20.9063 96.4075 21.111C95.8316 21.3158 95.2262 21.4181 94.5872 21.4181C93.9481 21.4181 93.3764 21.2902 92.8046 21.0343C92.2328 20.7784 91.7283 20.4286 91.2911 19.9808C90.8539 19.533 90.5176 19.0297 90.2905 18.4625L92.2581 17.5583C92.3758 17.8867 92.5524 18.1767 92.792 18.4241C93.0316 18.6715 93.3049 18.8677 93.616 19.0084C93.9271 19.1492 94.2508 19.2174 94.5872 19.2174C94.9235 19.2174 95.2556 19.1705 95.5709 19.0724C95.8862 18.9786 96.1679 18.8378 96.4244 18.6544C96.6808 18.471 96.8742 18.2493 97.0213 17.9934C97.1643 17.7332 97.2358 17.4389 97.2358 17.1105V15.8481C96.9583 16.2405 96.6135 16.5603 96.1931 16.8077C95.7769 17.0508 95.2934 17.1745 94.7469 17.1745C94.1121 17.1745 93.5151 17.0508 92.9644 16.8077C92.4094 16.5646 91.9217 16.2234 91.5013 15.7926C91.0809 15.3576 90.7488 14.8586 90.5134 14.2914C90.2737 13.7241 90.156 13.1142 90.156 12.466C90.156 11.8177 90.2737 11.2078 90.5134 10.6406C90.753 10.0733 91.0809 9.57432 91.5013 9.13929C91.9217 8.70427 92.4094 8.36734 92.9644 8.12423C93.5193 7.88113 94.1121 7.75745 94.7469 7.75745C95.2934 7.75745 95.7769 7.87687 96.1931 8.11997C96.6093 8.36307 96.9583 8.67868 97.2358 9.07532V7.99202V7.98349ZM94.7721 15.0676C95.2262 15.0676 95.6256 14.9482 95.9787 14.7136C96.3277 14.479 96.6051 14.1634 96.8027 13.7625C97.0045 13.3659 97.1012 12.9308 97.1012 12.4574C97.1012 11.984 97.0003 11.5447 96.7985 11.1481C96.5967 10.7557 96.3193 10.4358 95.9703 10.197C95.6214 9.95817 95.222 9.83875 94.7721 9.83875C94.3223 9.83875 93.9271 9.95817 93.5614 10.1927C93.1956 10.4273 92.9055 10.7429 92.6869 11.1396C92.4683 11.5319 92.359 11.9712 92.359 12.4574C92.359 12.9436 92.4683 13.3787 92.6869 13.7753C92.9055 14.1677 93.1956 14.4833 93.5614 14.7179C93.9271 14.9524 94.3307 15.0676 94.7721 15.0676V15.0676Z" fill="white"/>
<path d="M109.878 4.40097H112.359L116.853 16.94H114.566L113.772 14.7179H108.474L107.68 16.94H105.393L109.878 4.40097ZM109.261 12.5343H112.977L111.115 7.36512L109.261 12.5343V12.5343Z" fill="white"/>
<path d="M123.403 17.1745C122.567 17.1745 121.78 17.0039 121.045 16.667C120.309 16.3301 119.662 15.8609 119.107 15.2638C118.552 14.6667 118.114 13.9758 117.799 13.1911C117.484 12.4063 117.328 11.5661 117.328 10.6705C117.328 9.77484 117.488 8.92611 117.799 8.14136C118.11 7.3566 118.552 6.66568 119.107 6.07285C119.662 5.48002 120.309 5.01514 121.045 4.67394C121.78 4.33701 122.567 4.16641 123.403 4.16641C124.404 4.16641 125.325 4.40099 126.165 4.87013C127.006 5.33928 127.704 5.96623 128.259 6.74671L126.333 7.7959C125.985 7.36087 125.556 7.01114 125.039 6.74671C124.522 6.48229 123.979 6.35434 123.399 6.35434C122.857 6.35434 122.348 6.46523 121.873 6.69127C121.398 6.91731 120.977 7.22439 120.62 7.62103C120.263 8.01767 119.981 8.47829 119.779 8.99861C119.577 9.5232 119.481 10.0776 119.481 10.6705C119.481 11.2633 119.582 11.8263 119.783 12.3466C119.985 12.8669 120.267 13.3233 120.628 13.7199C120.986 14.1166 121.402 14.4279 121.877 14.6497C122.352 14.8715 122.857 14.9866 123.399 14.9866C123.988 14.9866 124.538 14.8544 125.047 14.59C125.556 14.3256 125.985 13.9716 126.329 13.5365L128.255 14.5942C127.7 15.3705 127.006 15.9932 126.161 16.4666C125.32 16.94 124.4 17.1745 123.399 17.1745H123.403Z" fill="white"/>
<path d="M130.192 16.94V4.40097H132.344V16.94H130.192Z" fill="white"/>
<path d="M134.729 16.94V4.40097H138.824C139.677 4.40097 140.476 4.56304 141.22 4.88718C141.964 5.21131 142.62 5.6634 143.188 6.23917C143.755 6.81494 144.201 7.48027 144.521 8.23517C144.84 8.99007 145 9.80041 145 10.6662C145 11.532 144.84 12.3423 144.521 13.0972C144.201 13.8521 143.755 14.5175 143.188 15.0932C142.62 15.669 141.964 16.1211 141.22 16.4452C140.476 16.7694 139.677 16.9314 138.824 16.9314H134.729V16.94ZM136.882 14.7563H138.824C139.37 14.7563 139.888 14.6497 140.375 14.4364C140.863 14.2232 141.288 13.9332 141.662 13.5578C142.036 13.1825 142.326 12.7518 142.536 12.2613C142.746 11.7708 142.856 11.2377 142.856 10.6705C142.856 10.1032 142.751 9.57437 142.536 9.0839C142.322 8.59343 142.032 8.16267 141.662 7.78735C141.292 7.41203 140.863 7.11775 140.384 6.9045C139.9 6.69126 139.383 6.58463 138.828 6.58463H136.886V14.752L136.882 14.7563Z" fill="white"/>
</svg>
