<svg width="108" height="34" viewBox="0 0 108 34" fill="none" xmlns="http://www.w3.org/2000/svg">
<rect x="2" y="2" width="30" height="30" rx="15" stroke="url(#paint0_linear_216_6)" stroke-width="4"/>
<path d="M49.334 19.658C49.656 19.672 50.041 19.567 50.489 19.343C50.951 19.105 51.301 18.811 51.539 18.461C51.623 18.377 51.665 18.265 51.665 18.125C51.665 17.985 51.616 17.845 51.518 17.705C51.42 17.565 51.273 17.446 51.077 17.348C50.769 17.18 50.391 17.089 49.943 17.075C49.649 17.215 49.355 17.432 49.061 17.726C48.809 17.992 48.641 18.202 48.557 18.356C48.473 18.496 48.431 18.657 48.431 18.839C48.431 19.077 48.508 19.266 48.662 19.406C48.83 19.546 49.054 19.63 49.334 19.658ZM44.882 23.669C44.882 23.473 44.952 23.312 45.092 23.186C45.232 23.06 45.421 22.983 45.659 22.955C46.555 22.815 47.724 22.703 49.166 22.619L49.271 21.023C48.809 20.995 48.389 20.883 48.011 20.687C47.661 20.477 47.395 20.218 47.213 19.91C47.031 19.602 46.94 19.224 46.94 18.776C46.94 18.062 47.395 17.299 48.305 16.487C48.599 16.221 48.893 15.997 49.187 15.815L48.809 15.017L46.604 15.08C46.38 15.094 46.191 15.031 46.037 14.891C45.883 14.751 45.806 14.576 45.806 14.366C45.806 14.156 45.869 13.981 45.995 13.841C46.121 13.701 46.289 13.624 46.499 13.61H46.751L47.318 13.589L49.67 13.526C51.112 13.498 52.183 13.47 52.883 13.442C53.121 13.428 53.317 13.484 53.471 13.61C53.639 13.736 53.723 13.911 53.723 14.135C53.723 14.345 53.66 14.52 53.534 14.66C53.422 14.786 53.282 14.856 53.114 14.87C52.302 14.94 51.504 14.975 50.72 14.975H50.384L50.846 15.794L50.867 15.836L51.035 15.878C51.245 15.934 51.504 16.039 51.812 16.193C52.414 16.501 52.799 16.788 52.967 17.054C53.149 17.306 53.24 17.628 53.24 18.02C53.24 18.706 52.911 19.336 52.253 19.91C51.791 20.274 51.308 20.554 50.804 20.75L50.783 20.855C50.741 21.247 50.699 21.8 50.657 22.514C51.665 22.458 52.414 22.423 52.904 22.409L54.542 22.367C55.144 22.367 55.781 22.388 56.453 22.43C56.439 21.898 56.432 21.107 56.432 20.057L56.516 14.786C56.516 13.274 56.53 12.224 56.558 11.636C56.572 11.44 56.649 11.279 56.789 11.153C56.943 11.027 57.118 10.964 57.314 10.964C57.524 10.964 57.706 11.041 57.86 11.195C58.014 11.349 58.091 11.538 58.091 11.762V12.308C58.063 13.008 58.049 13.848 58.049 14.828C58.035 15.038 58.028 15.451 58.028 16.067C58.028 16.739 58.021 17.236 58.007 17.558L57.965 20.099C57.951 20.883 57.958 21.954 57.986 23.312C58.028 24.656 58.077 25.629 58.133 26.231C58.161 26.483 58.105 26.686 57.965 26.84C57.825 26.994 57.622 27.071 57.356 27.071C57.188 27.071 57.034 27.008 56.894 26.882C56.754 26.77 56.67 26.63 56.642 26.462C56.558 25.818 56.509 24.936 56.495 23.816H55.487C54.325 23.816 53.212 23.844 52.148 23.9C48.676 24.096 46.52 24.257 45.68 24.383C45.428 24.411 45.232 24.362 45.092 24.236C44.952 24.11 44.882 23.921 44.882 23.669ZM46.646 11.804C46.646 11.636 46.695 11.496 46.793 11.384C46.891 11.258 47.01 11.181 47.15 11.153C47.43 11.083 47.822 11.027 48.326 10.985C48.83 10.943 49.509 10.901 50.363 10.859C50.615 10.845 50.944 10.845 51.35 10.859C51.756 10.859 52.036 10.88 52.19 10.922C52.316 10.95 52.428 11.034 52.526 11.174C52.624 11.314 52.673 11.468 52.673 11.636C52.673 11.734 52.652 11.825 52.61 11.909C52.526 12.063 52.414 12.161 52.274 12.203C52.148 12.245 51.945 12.266 51.665 12.266C51.273 12.266 50.65 12.287 49.796 12.329C48.942 12.371 48.242 12.434 47.696 12.518C47.668 12.518 47.626 12.525 47.57 12.539C47.514 12.539 47.43 12.539 47.318 12.539C47.108 12.539 46.94 12.469 46.814 12.329C46.702 12.189 46.646 12.014 46.646 11.804ZM61.347 23.102C61.095 23.102 60.892 23.018 60.738 22.85C60.598 22.668 60.549 22.458 60.591 22.22C60.633 21.996 60.738 21.597 60.906 21.023C61.074 20.449 61.207 20.008 61.305 19.7L61.473 19.238C62.411 16.578 63.027 14.94 63.321 14.324L63.993 12.98C64.161 12.77 64.385 12.665 64.665 12.665C64.819 12.665 64.959 12.707 65.085 12.791C65.281 12.945 65.379 13.162 65.379 13.442C65.379 13.596 65.337 13.736 65.253 13.862L65.127 14.093L65.253 14.303L65.484 14.765C65.554 14.877 65.778 15.318 66.156 16.088C66.45 16.69 66.8 17.369 67.206 18.125C67.696 19.021 68.284 20.022 68.97 21.128C69.138 21.394 69.236 21.646 69.264 21.884C69.264 22.094 69.159 22.276 68.949 22.43C68.823 22.514 68.697 22.556 68.571 22.556C68.291 22.556 68.032 22.395 67.794 22.073C67.444 21.597 66.863 20.596 66.051 19.07C65.449 17.894 64.882 16.774 64.35 15.71C64.126 16.298 63.923 16.865 63.741 17.411C63.279 18.755 62.936 19.714 62.712 20.288L62.103 22.472C62.047 22.668 61.949 22.822 61.809 22.934C61.669 23.046 61.515 23.102 61.347 23.102ZM71.385 20.057C71.385 18.783 71.399 17.201 71.427 15.311C71.455 13.421 71.483 12.266 71.511 11.846C71.525 11.65 71.602 11.489 71.742 11.363C71.896 11.237 72.071 11.174 72.267 11.174C72.491 11.174 72.687 11.258 72.855 11.426C73.037 11.594 73.121 11.79 73.107 12.014C73.079 12.35 73.051 13.085 73.023 14.219C73.009 15.353 73.002 16.361 73.002 17.243C73.786 16.753 74.598 16.326 75.438 15.962C75.55 15.92 75.648 15.899 75.732 15.899C76.04 15.899 76.257 16.039 76.383 16.319C76.439 16.417 76.467 16.536 76.467 16.676C76.467 17.012 76.299 17.236 75.963 17.348C75.151 17.656 74.164 18.104 73.002 18.692L72.981 19.154C72.967 19.448 72.96 19.924 72.96 20.582C72.96 22.094 73.002 23.62 73.086 25.16C73.114 25.412 73.058 25.615 72.918 25.769C72.792 25.923 72.589 26 72.309 26C72.141 26 71.987 25.944 71.847 25.832C71.707 25.706 71.623 25.559 71.595 25.391C71.455 24.411 71.385 22.633 71.385 20.057ZM78.6498 21.191C78.2998 20.981 78.0268 20.61 77.8308 20.078C77.6488 19.546 77.5578 19.014 77.5578 18.482C77.5578 17.866 77.6488 17.25 77.8308 16.634C78.0128 16.018 78.2858 15.437 78.6498 14.891C78.8738 14.541 79.1818 14.205 79.5738 13.883C79.9798 13.561 80.3298 13.4 80.6238 13.4C80.7918 13.4 80.9318 13.449 81.0438 13.547C81.2398 13.519 81.3868 13.505 81.4848 13.505C81.5688 13.505 81.7088 13.519 81.9048 13.547C82.5488 13.645 83.1858 13.96 83.8158 14.492C84.4458 15.01 84.8658 15.563 85.0758 16.151C85.1738 16.445 85.2228 16.795 85.2228 17.201C85.2228 17.817 85.0968 18.426 84.8448 19.028C84.5928 19.63 84.2288 20.141 83.7528 20.561C83.2908 20.939 82.7798 21.233 82.2198 21.443C81.6598 21.653 81.0998 21.758 80.5398 21.758C79.8678 21.758 79.2378 21.569 78.6498 21.191ZM79.1748 18.902C79.2168 19.238 79.3568 19.525 79.5948 19.763C79.8468 20.001 80.2108 20.12 80.6868 20.12C81.0368 20.12 81.3868 20.043 81.7368 19.889C82.1008 19.735 82.4228 19.525 82.7028 19.259C82.9688 19.049 83.1858 18.748 83.3538 18.356C83.5358 17.964 83.6268 17.572 83.6268 17.18C83.6268 16.746 83.5008 16.382 83.2488 16.088C83.0108 15.78 82.7098 15.549 82.3458 15.395C81.9958 15.241 81.6528 15.164 81.3168 15.164C81.1628 15.164 81.0508 15.171 80.9808 15.185C80.8128 15.213 80.6308 15.29 80.4348 15.416C80.2528 15.528 80.1128 15.64 80.0148 15.752C79.7208 16.088 79.4968 16.564 79.3428 17.18C79.1888 17.782 79.1328 18.356 79.1748 18.902ZM88.6458 16.844C88.6458 15.738 88.6528 15.087 88.6668 14.891C88.6668 13.477 88.6808 12.462 88.7088 11.846C88.7228 11.636 88.8068 11.468 88.9608 11.342C89.1148 11.202 89.2968 11.132 89.5068 11.132C89.7168 11.132 89.9058 11.216 90.0738 11.384C90.2418 11.552 90.3258 11.748 90.3258 11.972C90.3258 12.196 90.3188 12.399 90.3048 12.581L90.2838 14.954C90.2558 15.318 90.2418 15.682 90.2418 16.046L90.1788 20.519C90.1648 22.003 90.2278 23.55 90.3678 25.16C90.3958 25.426 90.3328 25.643 90.1788 25.811C90.0248 25.965 89.8148 26.042 89.5488 26.042C89.3528 26.042 89.1848 25.979 89.0448 25.853C88.9048 25.727 88.8208 25.573 88.7928 25.391C88.6528 24.411 88.5828 22.773 88.5828 20.477L88.6458 16.844ZM95.0572 14.786C94.8892 14.744 94.7492 14.66 94.6372 14.534C94.5392 14.394 94.4902 14.233 94.4902 14.051C94.4902 13.841 94.5532 13.666 94.6792 13.526C94.8192 13.372 94.9942 13.288 95.2042 13.274L97.0732 13.211C98.5292 13.211 99.8032 13.19 100.895 13.148L102.407 13.106C102.435 12.938 102.449 12.798 102.449 12.686C102.463 12.476 102.477 12.294 102.491 12.14C102.505 11.986 102.519 11.853 102.533 11.741L99.8452 11.783C99.0332 11.811 98.3192 11.825 97.7032 11.825C96.5552 11.825 95.6802 11.832 95.0782 11.846C94.8542 11.846 94.6652 11.776 94.5112 11.636C94.3712 11.482 94.3012 11.3 94.3012 11.09C94.3012 10.894 94.3642 10.726 94.4902 10.586C94.6302 10.432 94.8052 10.341 95.0152 10.313C95.8272 10.285 96.4432 10.271 96.8632 10.271C97.9412 10.271 98.9352 10.264 99.8452 10.25L102.827 10.208C103.625 10.208 104.052 10.593 104.108 11.363C104.108 11.587 104.101 11.727 104.087 11.783C104.045 12.217 103.975 12.742 103.877 13.358C104.031 13.512 104.108 13.687 104.108 13.883C104.108 14.107 104.024 14.289 103.856 14.429C103.702 14.569 103.485 14.639 103.205 14.639L100.076 14.702C99.6982 14.702 99.2362 14.709 98.6902 14.723C98.1582 14.723 97.4652 14.737 96.6112 14.765C96.6112 15.073 96.6042 15.29 96.5902 15.416C96.5762 15.766 96.5762 16.039 96.5902 16.235L100.454 16.004C101.896 15.948 102.813 15.892 103.205 15.836C103.429 15.808 103.625 15.843 103.793 15.941C103.961 16.025 104.073 16.172 104.129 16.382L104.171 16.634C104.171 16.802 104.115 16.956 104.003 17.096C103.905 17.222 103.779 17.299 103.625 17.327C102.827 17.411 101.595 17.488 99.9292 17.558C98.3752 17.628 97.1852 17.698 96.3592 17.768C95.8972 17.768 95.5682 17.649 95.3722 17.411C95.1762 17.159 95.0782 16.774 95.0782 16.256L95.0572 14.786ZM92.7682 20.12C92.7822 19.924 92.8662 19.756 93.0202 19.616C93.1742 19.476 93.3562 19.392 93.5662 19.364C93.6502 19.35 94.1682 19.287 95.1202 19.175C95.9882 19.077 97.7732 19.007 100.475 18.965C101.077 18.965 102.043 19 103.373 19.07C104.717 19.126 105.606 19.196 106.04 19.28C106.208 19.308 106.341 19.392 106.439 19.532C106.551 19.658 106.607 19.805 106.607 19.973C106.607 20.477 106.348 20.729 105.83 20.729C105.676 20.729 105.578 20.722 105.536 20.708C104.36 20.54 102.946 20.456 101.294 20.456C99.6562 20.456 98.4872 20.477 97.7872 20.519L94.5532 20.771L93.5662 20.897C93.3562 20.925 93.1672 20.869 92.9992 20.729C92.8452 20.575 92.7682 20.372 92.7682 20.12ZM95.1832 22.682C95.1832 22.514 95.2602 22.353 95.4142 22.199C95.5822 22.045 95.7712 21.968 95.9812 21.968C96.2192 21.968 96.4082 22.024 96.5482 22.136C96.6882 22.248 96.7582 22.374 96.7582 22.514C96.9122 22.346 97.1642 22.262 97.5142 22.262C98.4242 22.262 99.2082 22.234 99.8662 22.178C100.44 22.136 101.126 22.101 101.924 22.073C102.736 22.045 103.394 22.031 103.898 22.031C104.262 22.045 104.521 22.15 104.675 22.346C104.843 22.528 104.913 22.794 104.885 23.144C104.829 23.536 104.752 24.236 104.654 25.244L104.591 26.441C104.577 27.001 104.22 27.295 103.52 27.323C103.24 27.323 102.778 27.337 102.134 27.365L100.748 27.428C99.0122 27.512 97.9482 27.554 97.5562 27.554L97.1362 27.575C96.8702 27.617 96.5692 27.638 96.2332 27.638C95.9112 27.638 95.6732 27.526 95.5192 27.302C95.3792 27.092 95.2952 26.735 95.2672 26.231L95.2252 25.118C95.2252 24.698 95.2182 24.313 95.2042 23.963C95.1762 23.305 95.1692 22.878 95.1832 22.682ZM96.6532 23.438C96.6532 23.802 96.6672 24.271 96.6952 24.845C96.7232 25.419 96.7512 25.839 96.7792 26.105L101.903 25.895L103.079 25.832C103.093 25.482 103.163 24.712 103.289 23.522C102.323 23.522 100.958 23.585 99.1942 23.711C98.4242 23.753 97.7942 23.767 97.3042 23.753C97.1082 23.739 96.8912 23.634 96.6532 23.438Z" fill="#FFC603"/>
<defs>
<linearGradient id="paint0_linear_216_6" x1="30.6" y1="7.82" x2="14.62" y2="19.72" gradientUnits="userSpaceOnUse">
<stop stop-color="#FFC700"/>
<stop offset="1" stop-color="#FF9A61"/>
</linearGradient>
</defs>
</svg>
